<svg xmlns="http://www.w3.org/2000/svg" viewBox="0 0 321.92 272.29"><defs><style>.cls-1{fill:#262424;}</style></defs><title>logo</title><g id="Camada_2" data-name="Camada 2"><g id="Camada_2-2" data-name="Camada 2"><path class="cls-1" d="M230.94,157.28v10.56h-.46v-2a3.38,3.38,0,0,1-3.2,2.06,3.74,3.74,0,0,1,0-7.48,3.4,3.4,0,0,1,3.19,2v-5.15Zm-.47,6.86a3.18,3.18,0,1,0-3.18,3.31A3.12,3.12,0,0,0,230.47,164.14Z"/><path class="cls-1" d="M240.32,160.4v.47h-.12c-1.74,0-2.75,1.15-2.75,3v3.93H237v-7.38h.45v1.77A2.83,2.83,0,0,1,240.32,160.4Z"/><path class="cls-1" d="M245,158.07a.47.47,0,1,1,.47.45A.47.47,0,0,1,245,158.07Zm.24,2.39h.47v7.38h-.47Z"/><path class="cls-1" d="M258.26,163.5v4.34h-.47v-4.31a2.37,2.37,0,0,0-2.56-2.69,2.8,2.8,0,0,0-3,3v4h-.47v-7.38h.46v1.8a3.08,3.08,0,0,1,3-1.86A2.78,2.78,0,0,1,258.26,163.5Z"/><path class="cls-1" d="M266.76,163.7l-2.07,1.89v2.25h-.48V157.28h.48V165l5-4.56h.63l-3.22,2.95,3.55,4.43h-.6Z"/><path class="cls-1" d="M274.78,167.41a.48.48,0,0,1,1,0,.48.48,0,0,1-1,0Z"/><path class="cls-1" d="M231.78,181.21a3.57,3.57,0,0,1-3.63,3.74,3.38,3.38,0,0,1-3.2-2.06v2h-.46V174.36H225v5.15a3.39,3.39,0,0,1,3.19-2A3.57,3.57,0,0,1,231.78,181.21Zm-.47,0a3.18,3.18,0,1,0-3.17,3.32A3.12,3.12,0,0,0,231.31,181.21Z"/><path class="cls-1" d="M242.14,180.13v4.78h-.46v-1.48a2.87,2.87,0,0,1-2.76,1.52c-1.67,0-2.66-.83-2.66-2.07,0-1.08.69-2,2.71-2h2.7v-.73a2,2,0,0,0-2.29-2.23,3.9,3.9,0,0,0-2.65,1l-.25-.34a4.29,4.29,0,0,1,2.91-1.08A2.43,2.43,0,0,1,242.14,180.13Zm-.47,2.65v-1.54H239c-1.62,0-2.24.68-2.24,1.61s.83,1.71,2.22,1.71A2.7,2.7,0,0,0,241.67,182.78Z"/><path class="cls-1" d="M251.44,177.47v.47h-.13c-1.73,0-2.75,1.15-2.75,3.05v3.92h-.47v-7.38h.46v1.78A2.82,2.82,0,0,1,251.44,177.47Z"/><path class="cls-1" d="M255.66,184.49a.47.47,0,0,1,.94,0,.47.47,0,0,1-.94,0Z"/><path class="cls-1" d="M223.34,201l.23-.37a4.21,4.21,0,0,0,2.72.94c1.67,0,2.35-.62,2.35-1.53,0-2.34-5-.69-5-3.57,0-1.06.86-2,2.71-2a4.26,4.26,0,0,1,2.49.76l-.24.37a3.75,3.75,0,0,0-2.26-.7c-1.54,0-2.22.67-2.22,1.52,0,2.41,5,.79,5,3.59,0,1.15-1,1.95-2.83,1.95A4.41,4.41,0,0,1,223.34,201Z"/><path class="cls-1" d="M240.19,198.36h-6.5a3.17,3.17,0,0,0,3.3,3.24,3,3,0,0,0,2.46-1.1l.3.32A3.56,3.56,0,0,1,237,202a3.61,3.61,0,0,1-3.76-3.74,3.49,3.49,0,1,1,7-.06ZM233.7,198h6.05a3,3,0,0,0-6.05,0Z"/><path class="cls-1" d="M251.88,197.65V202h-.47v-4.31a2.38,2.38,0,0,0-2.56-2.69,2.8,2.8,0,0,0-3,3v4h-.47V194.6h.46v1.81a3.09,3.09,0,0,1,3-1.87A2.79,2.79,0,0,1,251.88,197.65Z"/><path class="cls-1" d="M256.69,201l.23-.37a4.21,4.21,0,0,0,2.72.94c1.67,0,2.34-.62,2.34-1.53,0-2.34-5-.69-5-3.57,0-1.06.86-2,2.72-2a4.3,4.3,0,0,1,2.49.76l-.25.37a3.72,3.72,0,0,0-2.26-.7c-1.54,0-2.21.67-2.21,1.52,0,2.41,5,.79,5,3.59,0,1.15-1,1.95-2.83,1.95A4.36,4.36,0,0,1,256.69,201Z"/><path class="cls-1" d="M272.59,197.2V202h-.45V200.5a2.89,2.89,0,0,1-2.76,1.53c-1.68,0-2.66-.84-2.66-2.08,0-1.08.68-2,2.7-2h2.7v-.73a2,2,0,0,0-2.29-2.23,3.83,3.83,0,0,0-2.64,1l-.26-.34a4.34,4.34,0,0,1,2.92-1.09A2.43,2.43,0,0,1,272.59,197.2Zm-.47,2.65v-1.54h-2.7c-1.62,0-2.23.69-2.23,1.61s.83,1.71,2.21,1.71A2.69,2.69,0,0,0,272.12,199.85Z"/><path class="cls-1" d="M283.79,200.48l.36.28a3.33,3.33,0,0,1-2.74,1.27h-.1l-.22.74a1.13,1.13,0,0,1,1.2,1.12c0,.7-.58,1.15-1.38,1.15a1.62,1.62,0,0,1-1.09-.37l.18-.3a1.4,1.4,0,0,0,.91.32c.57,0,1-.29,1-.81s-.36-.8-1-.8h-.26L281,202a3.75,3.75,0,0,1,.46-7.46,3.33,3.33,0,0,1,2.74,1.27l-.36.3a2.83,2.83,0,0,0-2.38-1.13,3.31,3.31,0,0,0,0,6.62A2.85,2.85,0,0,0,283.79,200.48Z"/><path class="cls-1" d="M288.29,198.29a3.65,3.65,0,1,1,3.64,3.74A3.58,3.58,0,0,1,288.29,198.29Zm6.82,0a3.18,3.18,0,1,0-3.18,3.31A3.12,3.12,0,0,0,295.11,198.29ZM291,192.23c-.45,0-.73.35-.75.93h-.36c0-.79.44-1.3,1.1-1.3.83,0,1.19,1,1.81,1,.46,0,.73-.37.76-.91H294c0,.75-.44,1.28-1.1,1.28C292,193.21,291.66,192.23,291,192.23Z"/><path class="cls-1" d="M306.9,198.36h-6.51a3.17,3.17,0,0,0,3.3,3.24,3,3,0,0,0,2.46-1.1l.3.32a3.56,3.56,0,0,1-2.76,1.21,3.61,3.61,0,0,1-3.76-3.74,3.49,3.49,0,1,1,7-.06Zm-6.5-.39h6.05a3,3,0,0,0-6.05,0Z"/><path class="cls-1" d="M311,201l.22-.37a4.21,4.21,0,0,0,2.72.94c1.67,0,2.35-.62,2.35-1.53,0-2.34-5-.69-5-3.57,0-1.06.86-2,2.71-2a4.26,4.26,0,0,1,2.49.76l-.24.37a3.72,3.72,0,0,0-2.26-.7c-1.54,0-2.22.67-2.22,1.52,0,2.41,5,.79,5,3.59,0,1.15-1,1.95-2.83,1.95A4.36,4.36,0,0,1,311,201Z"/><path class="cls-1" d="M321,201.56a.48.48,0,1,1,.47.47A.47.47,0,0,1,321,201.56Z"/><path class="cls-1" d="M62.74,7.4a12.09,12.09,0,0,0-2.13-3l-.72-.65c-.13-.1-.24-.22-.37-.32l-.28-.19-.1,0L59,3.36c-.57.42-1.15.83-1.74,1.25l-.93.66c-.31.24-.59.5-.89.75L53.64,7.55c-.31.26-.62.5-.93.77l-.86.86-2.3,2.31L47.48,14a30.53,30.53,0,0,0-1.93,2.59c-.6.9-1.27,1.74-1.78,2.69L42.13,22c-.51.95-1,1.92-1.45,2.88L40,26.34l-.63,1.48c-.4,1-.85,2-1.22,3A105.36,105.36,0,0,0,34.39,43c-1,4.15-1.77,8.3-2.36,12.49-.34,2.08-.55,4.18-.83,6.27s-.51,4.14-.51,6.22c-.18,4.14-.17,8.35-.09,12.5A166.65,166.65,0,0,0,33,105.18,129.72,129.72,0,0,0,39.51,129l1.12,2.88,1.24,2.84c.79,1.9,1.77,3.74,2.66,5.61,1.86,3.82,3.55,7.65,5.19,11.55,3.27,7.79,6.23,15.78,8.77,24a145.06,145.06,0,0,1,5.65,25.48,65.26,65.26,0,0,1,.28,14.57A33.88,33.88,0,0,1,63,223a20,20,0,0,0-1.52,6.62,14.1,14.1,0,0,0,1.13,6.56,12,12,0,0,0,4.2,5A16,16,0,0,0,73,243.68a46.29,46.29,0,0,0,6.75.84c9.09.54,18.23-.76,27.51-.1A33.39,33.39,0,0,1,120.75,248a24.38,24.38,0,0,1,9.76,10.27,26.86,26.86,0,0,0-4.72-6.48,22.62,22.62,0,0,0-6.62-4.58c-4.93-2.26-10.42-2.81-15.74-2.84s-10.57.44-15.73.64a66,66,0,0,1-15.33-.76,15.36,15.36,0,0,1-7.06-3.09,13.25,13.25,0,0,1-4.3-6.53,17.82,17.82,0,0,1-.3-8,21.45,21.45,0,0,1,1.1-3.91,4.78,4.78,0,0,0,.28-.89l.22-1A18,18,0,0,0,62.7,219a54.26,54.26,0,0,0,.11-15A114.82,114.82,0,0,0,59.75,188,261.83,261.83,0,0,0,49,156.46c-2.6-6.4-5.2-12.23-7.88-17.54A126.11,126.11,0,0,1,35,123.67a148,148,0,0,1-5.33-22.88c-.85-5.65-1.14-9.18-1.3-10.46s-.08-.3.24,3q-.16-1.66-.33-3.24c-.09-1-.18-2.07-.26-3.07-.21-2-.31-3.93-.46-5.86s-.2-3.85-.3-5.85-.11-4.07,0-6.33q0-1.71.09-3.39c.12-1.11.23-2.22.34-3.32.23-2.21.51-4.35.82-6.49.61-4.26,1.41-8.41,2.37-12.48a90.91,90.91,0,0,1,8.7-22.93l1.19-2.11.79-1.39c.29-.47.63-.94.95-1.42.66-1,1.31-1.91,1.91-2.73s1.23-1.44,1.61-1.9l1.3-1.49L48.68,8,50.1,6.62c.24-.22.47-.46.71-.67l.77-.6c1-.8,2-1.62,3.06-2.39L58.09.76l.63-.41L59,.15l.15-.1.08,0,.08.06,1.18,1a11.57,11.57,0,0,1,.89.76l.71.73a17.85,17.85,0,0,1,1.28,1.57,15.42,15.42,0,0,1,1,1.75,22.38,22.38,0,0,1,1.93,7.71,65.18,65.18,0,0,0,1,7.75,59.3,59.3,0,0,1,1.16,8.2,157.74,157.74,0,0,1,0,17.83c0-2.28,0-4.55,0-4.55-.22,4.62-.38,6.91-.52,11.53-.26-6.85.18-14.87-.57-23-.2-2-.45-4.08-.83-6.11-.08-.51-.2-1-.3-1.52l-.15-.75-.07-.31L66,22.17A27.48,27.48,0,0,1,65.28,19C64.52,14.84,64.41,10.65,62.74,7.4Z"/><path class="cls-1" d="M49.38,159.51a32.06,32.06,0,0,1,.94-4.59c.34-1.1.68-2.2,1-3.29s.68-2.16.93-3.25q.84-3.27,1.66-6.45c1.1-4.25,2.21-8.4,3.35-12.54.56-2,1.13-4.08,1.69-6.12.18-1,.35-2.08.53-3.12l.57-3.2c.78-4.28,1.64-8.59,2.51-13A225.48,225.48,0,0,0,66.5,75.42c-.15,2.73-.47,5.46-.61,8.2-.26,5.51-.72,10.48-1.25,16-.5,5-1,11.1-2,16.67-.32,1.75-.6,3.38-.84,4.88-.12.76-.23,1.48-.34,2.17l0,.28a2.7,2.7,0,0,1-.08.35l-.13.49-.25.94q-1,3.69-1.46,5.84c-.68,2.84-.77,3.55-.35,1.89-.56,2.23-.54,3.95-1,6.19s-1.09,4.36-1.71,6.39c-.32,1-.63,2-.94,3s-.6,2-1,2.94a20.63,20.63,0,0,1-.78,2.81c-2,5-3.94,9.38-6,15.55l.2-1.17-1.15,2.76C47.46,168.11,48.53,163.53,49.38,159.51Z"/><path class="cls-1" d="M5.12,262.58a33,33,0,0,1,1.81-3.74c4.26-7,8-13.62,11.6-20.29s7-13.38,10.54-20.59c1.93-4,3.51-7.9,5.12-11.76L39,194.43c-.89,2.26-1.9,4.49-2.66,6.81l-4.45,13.54a116.32,116.32,0,0,1-5.49,13.89C20.69,240,18.22,245,19.67,242.31c-.94,1.82-1.25,3.32-2.1,5.17a89.17,89.17,0,0,1-6.05,9.73,15.35,15.35,0,0,1-1.26,2.27c-2.81,3.84-5.61,7.08-9,11.75l.47-.94-1.74,2C1.42,269.46,3.51,265.86,5.12,262.58Z"/><path class="cls-1" d="M86,137.6c-1.32-.07-2.66.66-4.17,1.61-.12.08-.27.16-.25.16l-.3.31-.66.68-.66.68c-.2.23-.37.5-.56.75-.36.51-.78,1-1.09,1.52l-.9,1.63a22.79,22.79,0,0,0-2,7.08,30,30,0,0,0,2.22,14.47l.34.86.41.83c.28.55.53,1.11.83,1.65a31.54,31.54,0,0,0,2,3.11,29,29,0,0,0,2.34,2.87l2.68,2.83c3.6,3.78,7.23,7.65,10.82,11.77,4,4.53,7.68,9,11.07,13.52,1.68,2.29,3.31,4.62,4.89,7a1.45,1.45,0,0,0,.31.35,4.4,4.4,0,0,0,.39.35,8.9,8.9,0,0,0,.83.66,18.37,18.37,0,0,0,1.81,1.13c1.27.7,2.62,1.24,4,2-1.48-.78-3-1.4-4.42-2.23a15.44,15.44,0,0,1-2-1.35,6.72,6.72,0,0,1-.86-.79l-.74-1A150.59,150.59,0,0,0,99.65,195.4c-4.17-4.34-9.64-9.23-14.35-14.17L83.15,179c-.69-.71-1.36-1.38-2-2.12A33.09,33.09,0,0,1,78,172.72a38.11,38.11,0,0,1-3.4-6.64c-1.21-3.42-1.45-4.28-.87-2.23-.79-2.73-1.64-4.7-1.92-7.61a24.76,24.76,0,0,1,0-4.31,23.65,23.65,0,0,1,.87-4.08,14,14,0,0,1,.66-1.92c.28-.62.56-1.23.83-1.84s.67-1.15,1-1.72l.52-.85c.17-.28.4-.52.59-.79s.6-.93,1-1.54a13.11,13.11,0,0,1,1.29-1.37l1-.91,1.22-.65a5.69,5.69,0,0,1,1.22-.5,5.24,5.24,0,0,1,1.29-.35,7.17,7.17,0,0,1,5.2.9,10.54,10.54,0,0,1,3.59,3.85,16.4,16.4,0,0,1,1.91,5.3,8.52,8.52,0,0,0-.32-.94l-.16-.41a12.74,12.74,0,0,1,.26,1.78,14.08,14.08,0,0,1,0,1.78,15.52,15.52,0,0,0-2.51-6.43C90.05,139.21,87.93,137.64,86,137.6Z"/><path class="cls-1" d="M81.06,208.13a11.86,11.86,0,0,1,1.46-2,51.85,51.85,0,0,0,13.56-23.57,49.31,49.31,0,0,0,1.25-15.3c.06,1.47.11,2.94.22,4.41.08.75.15,1.47.22,2.18s.06,1.43.1,2.14c.09,1.43,0,2.86,0,4.38-.16,2.72-.32,6.17-1.54,9.09a79.32,79.32,0,0,1-3.48,7.61c-.76,1.41-.89,1.8-.42,1a8.07,8.07,0,0,0-.65,1.62,14.27,14.27,0,0,1-.69,1.62,12.5,12.5,0,0,1-1,1.56c-.4.47-.8.92-1.21,1.36-.78.89-1.68,1.62-2.5,2.41a5.36,5.36,0,0,1-1,1.24c-1.22.87-2.34,1.71-3.62,2.46-.63.38-1.26.79-1.92,1.23s-1.38.83-2.11,1.32l.43-.49-1.46.7c.64-.74,1.41-1.54,2.22-2.36S80.36,209,81.06,208.13Z"/><path class="cls-1" d="M144.47,157.71a3.12,3.12,0,0,1,.11-1,32.9,32.9,0,0,1,5.36-9.81c1.26-1.72,2.4-3.19,3.7-4.82a12.81,12.81,0,0,0-1,1.39c-.57,1-1.06,2-1.57,3a26.15,26.15,0,0,1-1.57,3.13c-1.63,2.49-1.95,3.78-1.66,3.13a6.18,6.18,0,0,0-.28,1.29,23.81,23.81,0,0,1-1.2,2.37,2,2,0,0,1-.17.58,14.39,14.39,0,0,0-1.53,3.12v-.25l-.3.56A21.18,21.18,0,0,1,144.47,157.71Z"/><path class="cls-1" d="M111.84,141.62a59,59,0,0,1,2.91,5.45c4.87,10.77,9.5,20.78,14.18,30.68,2.36,4.93,4.72,9.84,7.11,14.82l3.68,7.48c.28.62.57,1.24.86,1.87l.54,1.12.29.61.15.32.08.16s.07.16.06.08c0-.32,0-.65,0-1q-.13-3.66-.27-7.15c-.11-3.17-.17-6.28-.17-9.39a152.52,152.52,0,0,1,1.08-18.9,88.91,88.91,0,0,0-.79,10.83,211.07,211.07,0,0,0,1.29,21.11c.41,4,.85,8.35,1.31,12.86-1.5-2.54-3.33-5.81-5.2-9.19l-2.17-4c-.55-1-1.07-2.07-1.58-3.1-8.29-16.88-12-24.23-10.1-20.16-1.34-2.71-2.67-4.49-4.09-7.15-2.74-5.42-4.66-10.55-6.75-15.53-.37-.66-1.38-2.72-1.65-3.46-2.5-6.57-4.48-12.56-7.68-20.48l.73,1.36-1.25-3.72C106.6,131.26,109.32,136.83,111.84,141.62Z"/><path class="cls-1" d="M198.76,173.13a7,7,0,0,1,0-2.1,220.93,220.93,0,0,1,5.88-22.26c1.21-4.24,2.19-8,3.19-12.2a32.39,32.39,0,0,0-.75,3.52c-.23,2.42-.45,4.59-.66,7a41.12,41.12,0,0,1-1,7.29c-1.71,6-2,8.75-1.64,7.29a21.47,21.47,0,0,0,0,2.78,33.33,33.33,0,0,1-1.62,5.39,4.11,4.11,0,0,1-.18,1.25,50,50,0,0,0-2.61,6.85c0-.27,0-.53,0-.53-.22.48-.34.72-.56,1.21C198.64,177,198.75,175,198.76,173.13Z"/><path class="cls-1" d="M162.89,164.84a33.13,33.13,0,0,1,.74,3.79,83.33,83.33,0,0,0,5.15,21,76.6,76.6,0,0,0,4.26,9.68,36,36,0,0,0,2.84,4.48,16.43,16.43,0,0,0,3.78,3.71,7.55,7.55,0,0,0,5.41,1.28,9.15,9.15,0,0,0,5-2.54,15.29,15.29,0,0,0,3.13-4.83,35,35,0,0,0,1.81-5.75,46.1,46.1,0,0,1-2.05,6.52,13.27,13.27,0,0,1-3.66,5.55,9.05,9.05,0,0,1-2.94,1.74,8.32,8.32,0,0,1-3.55.58,11.6,11.6,0,0,1-6.61-2.93,21.65,21.65,0,0,1-4.77-5.81,98.45,98.45,0,0,1-5.42-11.7c-.91-2.28-1.19-2.81-.69-1.47-.68-1.8-1.56-3-2.27-4.83a46.75,46.75,0,0,1-2-10.77,11.74,11.74,0,0,1-.41-2.44,113.74,113.74,0,0,1,.83-14c0,.5.07,1,.07,1,.18-1,.3-1.47.49-2.45A93.58,93.58,0,0,0,162.89,164.84Z"/><path class="cls-1" d="M180.92,141.63c.1-.36,0-1.17.29-1.25a59.48,59.48,0,0,1,9.11-4.78,17.22,17.22,0,0,0,4.45-3.81c-.33.45-.85.76-1,1.36-.21,1.25-.5,2.35-.82,3.64-.32,1.11-.52,2.81-1.67,3.4-2.8,1.51-3.49,2.76-2.89,2.34-.39.31-.14,1.23-.4,1.74-.67.84-1.91.68-2.83.88,0,.18-.27.52-.45.49-1.42-.07-2.86-.59-4.16-.18l.08-.38-.8-.23C180.12,143.71,180.62,142.69,180.92,141.63Z"/></g></g></svg>